<svg width="24" height="24" viewBox="0 0 33 33" fill="none" xmlns="http://www.w3.org/2000/svg">
    <g clip-path="url(#clip0_272_871)">
        <path d="M1.34863 1.34856H6.74287L10.357 19.4058C10.4803 20.0267 10.8181 20.5844 11.3112 20.9813C11.8043 21.3782 12.4213 21.5891 13.0541 21.577H26.1621C26.795 21.5891 27.412 21.3782 27.9051 20.9813C28.3982 20.5844 28.7359 20.0267 28.8593 19.4058L31.017 8.09136H8.09144M13.4857 28.3198C13.4857 29.0646 12.8819 29.6683 12.1371 29.6683C11.3923 29.6683 10.7886 29.0646 10.7886 28.3198C10.7886 27.575 11.3923 26.9712 12.1371 26.9712C12.8819 26.9712 13.4857 27.575 13.4857 28.3198ZM28.3198 28.3198C28.3198 29.0646 27.7161 29.6683 26.9713 29.6683C26.2265 29.6683 25.6227 29.0646 25.6227 28.3198C25.6227 27.575 26.2265 26.9712 26.9713 26.9712C27.7161 26.9712 28.3198 27.575 28.3198 28.3198Z"
            stroke="#5E4C3E" stroke-width="2" stroke-linecap="round" stroke-linejoin="round"/>
    </g>
    <defs>
        <clipPath id="clip0_272_871">
            <rect width="32.3655" height="32.3655" fill="white"/>
        </clipPath>
    </defs>
</svg>
