<svg width="20" height="18" viewBox="0 0 20 18" fill="none" xmlns="http://www.w3.org/2000/svg">
<g id="profile_icon" clip-path="url(#clip0_602_1760)">
<g id="icons">
<path id="profile_image_zoom-[#1347]" fill-rule="evenodd" clip-rule="evenodd" d="M18 12.0753C17 10.8649 15.559 9.94779 13.86 9.40549C15.226 8.47049 16.153 7.12318 16.153 5.51668C16.153 4.20853 15.619 3.05 14.667 2.2H18V12.0753ZM2.42001 15.8C3.24601 12.4 6.41901 10.7 10.204 10.7C13.989 10.7 17.161 12.4 17.987 15.8H2.42001ZM2 12.0753V2.2H5.741C4.788 3.05 4.20401 4.20853 4.20401 5.51668C4.20401 7.12318 4.97799 8.5121 6.34399 9.4471C4.64499 9.9894 3 10.8649 2 12.0753ZM10.204 2.03336C12.409 2.03336 14.204 3.55826 14.204 5.43336C14.204 7.30761 12.409 8.83336 10.204 8.83336C7.99801 8.83336 6.20401 7.30761 6.20401 5.43336C6.20401 3.55826 7.99801 2.03336 10.204 2.03336ZM0 17.5H20V0.5H0V17.5Z" fill="#3F2305"/>
</g>
</g>
<defs>
<clipPath id="clip0_602_1760">
<rect width="20" height="17" fill="white" transform="translate(0 0.5)"/>
</clipPath>
</defs>
</svg>
